<svg id="Capa_1" enable-background="new 0 0 512 512" height="512" viewBox="0 0 512 512" width="512" xmlns="http://www.w3.org/2000/svg"><g><g><g><path d="m266.314 32.198 16.47 30.644 34.234 6.193-24.055 25.133 4.688 34.472-31.337-15.111-31.337 15.111 4.688-34.472-24.056-25.133 34.235-6.193z" fill="#ffcd69"/><path d="m412.005 115.267 29.232 54.39 60.763 10.993-42.696 44.608 8.321 61.183-55.62-26.82-55.619 26.82 8.321-61.183-42.696-44.608 60.763-10.993z" fill="#ffcd69"/><path d="m502 345.081c-38.704 92.191-129.819 156.919-236.063 156.919-141.349 0-255.937-114.584-255.937-255.929 0-106.257 64.747-197.385 156.941-236.071-12.799 30.445-19.875 63.905-19.875 99.01 0 141.345 114.588 255.928 255.937 255.928 35.09 0 68.534-7.059 98.997-19.857z" fill="#ffe6b4"/></g></g><g><path d="m297.65 138.639c-1.478 0-2.963-.327-4.343-.992l-26.994-13.018-26.993 13.018c-3.315 1.599-7.242 1.248-10.222-.918-2.979-2.164-4.527-5.79-4.031-9.437l4.039-29.693-20.721-21.649c-2.546-2.66-3.424-6.504-2.287-10.005 1.138-3.502 4.107-6.095 7.73-6.75l29.49-5.335 14.186-26.397c1.743-3.242 5.127-5.266 8.809-5.266s7.065 2.022 8.809 5.266l14.187 26.397 29.489 5.335c3.623.655 6.593 3.248 7.73 6.75 1.138 3.501.259 7.345-2.286 10.005l-20.722 21.648 4.039 29.693c.496 3.648-1.053 7.273-4.031 9.437-1.738 1.266-3.802 1.911-5.878 1.911zm-31.337-35.111c1.485 0 2.972.331 4.344.992l14.578 7.03-2.182-16.035c-.41-3.02.578-6.061 2.685-8.263l11.189-11.69-15.924-2.881c-2.998-.542-5.586-2.422-7.028-5.105l-7.662-14.256-7.661 14.256c-1.442 2.684-4.03 4.563-7.028 5.105l-15.924 2.881 11.189 11.69c2.107 2.202 3.095 5.243 2.685 8.263l-2.181 16.034 14.577-7.029c1.372-.661 2.858-.992 4.343-.992z"/><path d="m467.624 296.441c-1.478 0-2.963-.327-4.343-.992l-51.275-24.728-51.276 24.728c-3.314 1.6-7.241 1.247-10.222-.918-2.979-2.164-4.527-5.789-4.031-9.438l7.672-56.405-39.362-41.123c-2.545-2.66-3.424-6.504-2.286-10.005 1.138-3.502 4.107-6.095 7.73-6.75l56.018-10.135 26.949-50.143c1.743-3.242 5.127-5.266 8.809-5.266 3.682 0 7.065 2.023 8.809 5.266l26.948 50.143 56.018 10.135c3.623.655 6.593 3.248 7.73 6.75 1.138 3.501.259 7.345-2.287 10.005l-39.361 41.123 7.672 56.405c.496 3.648-1.053 7.273-4.031 9.438-1.742 1.265-3.805 1.91-5.881 1.91zm-125.523-109.264 29.83 31.165c2.107 2.202 3.095 5.243 2.685 8.263l-5.814 42.746 38.86-18.739c2.744-1.323 5.943-1.322 8.688 0l38.859 18.739-5.814-42.746c-.41-3.02.578-6.061 2.685-8.263l29.83-31.165-42.452-7.681c-2.998-.542-5.586-2.422-7.028-5.105l-20.423-38.001-20.424 38.001c-1.442 2.684-4.03 4.564-7.028 5.105z"/><path d="m300.988 509.619c-4.921.001-9.208-3.632-9.895-8.644-.75-5.472 3.078-10.516 8.55-11.265 77.636-10.636 145.732-58.428 182.748-126.82-25.564 8.003-52.169 12.048-79.388 12.048-71.034 0-137.816-27.661-188.046-77.889-50.229-50.227-77.891-117.008-77.891-188.04 0-27.235 4.052-53.856 12.071-79.438-79.169 42.628-129.137 125.208-129.137 216.5 0 114.733 81.226 215.773 193.136 240.249 5.395 1.181 8.812 6.511 7.632 11.906-1.18 5.396-6.514 8.812-11.906 7.633-58.314-12.755-111.308-45.412-149.222-91.958-38.459-47.217-59.64-106.82-59.64-167.83 0-53.418 15.775-104.936 45.619-148.984 29.123-42.983 69.737-76.286 117.453-96.308 3.748-1.571 8.072-.721 10.942 2.152 2.872 2.873 3.72 7.199 2.145 10.944-12.669 30.137-19.093 62.144-19.093 95.134 0 135.605 110.327 245.928 245.937 245.928 32.99 0 64.994-6.418 95.123-19.077 3.743-1.573 8.069-.725 10.943 2.148 2.873 2.872 3.723 7.197 2.15 10.943-17.678 42.106-46.165 79.22-82.382 107.327-36.767 28.535-80.504 46.948-126.48 53.246-.459.064-.917.095-1.369.095z"/><circle cx="256" cy="501.999" r="10"/></g></g></svg>